<?xml version="1.0" standalone="no"?>
<!DOCTYPE svg PUBLIC "-//W3C//DTD SVG 20010904//EN"
 "http://www.w3.org/TR/2001/REC-SVG-20010904/DTD/svg10.dtd">
<svg version="1.0" xmlns="http://www.w3.org/2000/svg"
 width="512.000000pt" height="512.000000pt" viewBox="0 0 512.000000 512.000000"
 preserveAspectRatio="xMidYMid meet">

<g transform="translate(0.000000,512.000000) scale(0.100000,-0.100000)"
fill="#d7d8da" stroke="none">
<path d="M1243 4495 c-345 -63 -608 -310 -696 -653 l-22 -87 0 -1190 c0 -1276
-2 -1227 51 -1379 56 -163 181 -325 327 -424 68 -48 180 -98 272 -124 l80 -23
1030 -3 c1149 -3 1088 -7 1143 66 22 29 27 46 27 93 0 62 -17 94 -69 133 -27
21 -37 21 -1064 26 -1136 6 -1054 1 -1187 66 -76 37 -180 139 -222 219 -50 95
-63 156 -70 315 l-5 145 56 29 c140 72 265 190 475 451 145 179 216 251 276
280 72 33 120 2 285 -184 242 -271 368 -351 560 -351 148 0 275 59 405 189 91
91 149 171 305 421 147 235 200 308 279 383 96 92 169 115 260 82 119 -42 300
-219 449 -441 l41 -61 3 -259 c3 -252 4 -260 27 -297 31 -51 91 -81 149 -74
51 6 87 29 120 77 l23 34 -3 925 -3 926 -23 75 c-52 167 -160 330 -292 437
-80 65 -218 135 -325 165 l-80 23 -1255 2 c-999 1 -1270 -1 -1327 -12z m2560
-320 c147 -31 299 -145 365 -276 59 -117 62 -137 62 -538 l0 -364 -77 75
c-173 167 -348 247 -522 236 -145 -10 -257 -66 -385 -194 -98 -97 -154 -175
-325 -447 -147 -234 -196 -301 -270 -370 -60 -56 -104 -77 -163 -77 -68 0
-132 45 -249 172 -202 220 -272 284 -362 328 -102 50 -180 61 -276 36 -149
-38 -267 -135 -464 -381 -119 -148 -272 -315 -289 -315 -5 0 -8 363 -6 838 3
775 5 841 22 892 65 199 219 344 410 385 94 21 2433 21 2529 0z"/>
<path d="M1477 3730 c-138 -35 -226 -146 -227 -285 0 -166 121 -289 285 -289
117 -1 208 54 263 159 36 68 38 188 4 252 -66 125 -202 193 -325 163z"/>
<path d="M4120 1672 c-20 -11 -44 -37 -57 -62 -21 -38 -23 -57 -23 -172 l0
-128 -131 0 c-115 0 -136 -3 -169 -21 -54 -31 -84 -88 -78 -151 6 -61 31 -96
88 -125 39 -20 59 -23 166 -23 l122 0 4 -138 c3 -133 4 -140 30 -174 71 -94
214 -82 269 22 16 29 19 57 19 162 l0 128 123 0 c97 0 130 4 163 19 84 38 118
140 74 219 -38 68 -77 82 -229 82 l-131 0 0 127 c0 140 -14 189 -67 228 -39
28 -128 32 -173 7z"/>
</g>
</svg>
