<?xml version="1.0" standalone="no"?>
<!DOCTYPE svg PUBLIC "-//W3C//DTD SVG 20010904//EN"
 "http://www.w3.org/TR/2001/REC-SVG-20010904/DTD/svg10.dtd">
<svg version="1.0" xmlns="http://www.w3.org/2000/svg"
 width="512.000000pt" height="512.000000pt" viewBox="0 0 512.000000 512.000000"
 preserveAspectRatio="xMidYMid meet">

<g transform="translate(0.000000,512.000000) scale(0.100000,-0.100000)"
fill="#000000" stroke="none">
<path d="M1526 4789 c-137 -18 -313 -72 -441 -137 -131 -65 -237 -144 -355
-262 -166 -166 -265 -323 -335 -533 -74 -222 -70 -156 -70 -1297 0 -1143 -4
-1075 71 -1300 68 -205 171 -367 334 -530 204 -204 412 -317 701 -382 l104
-23 1025 0 1025 0 104 23 c171 39 337 104 455 180 361 232 593 597 646 1014 6
47 10 310 10 616 0 480 -2 537 -17 562 -34 58 -116 68 -164 21 l-29 -29 0
-268 0 -267 -167 165 c-183 179 -250 227 -389 274 -105 36 -284 45 -399 19
-149 -33 -222 -80 -559 -360 -169 -140 -328 -266 -354 -279 -80 -41 -160 -60
-252 -60 -110 0 -170 19 -340 104 -194 97 -240 111 -390 117 -200 9 -216 3
-748 -262 -249 -124 -455 -225 -457 -225 -10 0 -5 1776 5 1865 32 280 166 549
367 734 190 175 423 282 678 311 53 6 388 10 812 10 511 0 729 3 747 11 60 28
71 122 20 170 l-26 24 -771 1 c-425 1 -803 -2 -841 -7z m2399 -2364 c134 -34
172 -62 428 -314 l237 -234 0 -96 c-1 -360 -105 -644 -321 -875 -188 -201
-454 -334 -734 -366 -119 -13 -1817 -13 -1945 0 -408 43 -756 287 -935 654
-50 101 -96 238 -85 249 3 3 218 111 478 241 494 247 540 266 662 266 95 0
162 -21 333 -104 216 -105 272 -121 427 -120 142 0 211 15 328 70 74 36 127
76 506 391 114 94 231 183 260 197 112 55 246 70 361 41z"/>
<path d="M4014 4576 c-60 -26 -64 -42 -64 -238 l0 -177 -184 -3 c-179 -3 -185
-4 -210 -27 -51 -48 -40 -142 20 -170 14 -6 80 -11 153 -11 71 0 149 -3 175
-6 l46 -7 0 -168 c0 -103 4 -178 11 -193 28 -60 122 -71 170 -20 23 25 24 31
27 205 l3 179 170 0 c192 0 221 8 245 65 17 43 9 87 -22 116 -29 28 -103 38
-276 38 l-118 1 0 170 c0 193 -8 222 -65 246 -41 17 -42 17 -81 0z"/>
<path d="M1680 4036 c-178 -50 -314 -178 -370 -346 -115 -344 139 -699 500
-700 235 0 441 148 511 369 29 91 29 231 0 322 -54 172 -200 308 -376 354 -70
18 -202 18 -265 1z m274 -230 c60 -29 113 -82 148 -148 19 -36 23 -58 23 -138
0 -80 -4 -102 -23 -138 -35 -66 -88 -119 -150 -149 -76 -38 -191 -40 -267 -5
-135 62 -213 210 -185 350 15 72 31 103 83 159 95 103 245 131 371 69z"/>
</g>
</svg>
