<?xml version="1.0" standalone="no"?>
<!DOCTYPE svg PUBLIC "-//W3C//DTD SVG 20010904//EN"
 "http://www.w3.org/TR/2001/REC-SVG-20010904/DTD/svg10.dtd">
<svg version="1.0" xmlns="http://www.w3.org/2000/svg"
 width="512.000000pt" height="512.000000pt" viewBox="0 0 512.000000 512.000000"
 preserveAspectRatio="xMidYMid meet">

<g transform="translate(0.000000,512.000000) scale(0.100000,-0.100000)"
fill="#000000" stroke="none">
<path d="M2463 5102 c-109 -39 -178 -112 -210 -221 -39 -137 31 -296 160 -362
l37 -19 0 -115 0 -115 -687 0 c-447 0 -701 -4 -726 -11 -20 -5 -44 -21 -53
-34 -8 -13 -209 -507 -445 -1097 l-430 -1073 5 -100 c9 -184 83 -371 209 -530
116 -147 291 -263 483 -321 80 -24 105 -27 249 -28 127 -1 176 3 235 18 338
86 601 336 695 661 28 97 46 251 35 298 -4 18 -183 472 -399 1010 -215 537
-391 979 -391 982 0 3 275 5 610 5 l610 0 0 -1705 0 -1705 -700 0 c-772 0
-743 2 -776 -61 -22 -43 -11 -91 27 -123 l31 -26 1528 0 1528 0 31 26 c38 32
49 80 27 123 -33 63 -4 61 -776 61 l-700 0 0 1705 0 1705 610 0 c336 0 610 -2
610 -5 0 -3 -176 -445 -391 -982 -215 -538 -395 -990 -400 -1006 -11 -40 8
-205 36 -303 94 -324 358 -574 695 -660 59 -15 108 -19 235 -18 144 1 169 4
249 28 267 81 475 256 597 501 60 121 89 228 95 355 l5 95 -430 1073 c-236
590 -437 1084 -445 1097 -9 13 -33 29 -53 34 -25 7 -279 11 -725 11 l-688 0 0
115 0 115 38 19 c53 27 108 84 139 144 39 75 39 188 2 268 -69 146 -241 223
-386 171z m171 -232 c41 -40 41 -100 -2 -142 -24 -25 -39 -31 -72 -31 -91 0
-138 107 -75 173 45 47 100 47 149 0z m-1214 -1879 c187 -469 339 -855 337
-857 -2 -2 -315 -3 -694 -2 l-691 3 347 867 c190 476 349 861 353 855 3 -7
160 -396 348 -866z m2637 -859 c-379 -1 -692 0 -694 2 -2 2 152 394 343 871
l347 868 347 -869 348 -869 -691 -3z m-2257 -235 c0 -73 -80 -247 -157 -342
-94 -116 -245 -213 -393 -252 -90 -24 -282 -24 -370 1 -277 76 -495 307 -545
579 l-7 37 736 0 736 0 0 -23z m2985 -14 c-50 -272 -268 -503 -545 -579 -88
-25 -280 -25 -370 -1 -148 39 -299 136 -393 252 -76 94 -157 271 -157 344 l0
21 736 0 736 0 -7 -37z"/>
<path d="M569 181 c-54 -54 -36 -146 33 -170 44 -15 3872 -15 3916 0 69 24 87
116 33 170 l-29 29 -1962 0 -1962 0 -29 -29z"/>
</g>
</svg>
