<?xml version="1.0" standalone="no"?>
<!DOCTYPE svg PUBLIC "-//W3C//DTD SVG 20010904//EN"
 "http://www.w3.org/TR/2001/REC-SVG-20010904/DTD/svg10.dtd">
<svg version="1.0" xmlns="http://www.w3.org/2000/svg"
 width="512.000000pt" height="512.000000pt" viewBox="0 0 512.000000 512.000000"
 preserveAspectRatio="xMidYMid meet">

<g transform="translate(0.000000,512.000000) scale(0.100000,-0.100000)"
fill="#808289" stroke="none">
<path d="M1469 4163 c-60 -31 -105 -86 -119 -149 -14 -60 -13 -2979 1 -3029
15 -52 82 -119 134 -134 59 -16 2113 -15 2167 1 48 14 119 89 135 142 15 49 6
2995 -9 3045 -14 45 -74 110 -123 132 -38 18 -96 19 -1086 19 l-1045 0 -55
-27z m2169 -136 l22 -23 1 -1480 c0 -814 -3 -1488 -7 -1498 -4 -9 -18 -22 -31
-27 -14 -5 -450 -9 -1058 -9 -994 0 -1034 1 -1056 19 -28 22 -26 -84 -30 1730
l-3 1264 28 23 27 24 1043 0 1043 0 21 -23z"/>
<path d="M1669 3849 c-14 -5 -31 -20 -36 -32 -6 -14 -9 -475 -8 -1311 l3
-1290 27 -23 27 -24 877 2 c482 1 891 6 908 11 18 4 38 18 44 30 16 30 3 2592
-14 2618 -6 10 -20 21 -32 24 -36 10 -1769 5 -1796 -5z m1699 -881 l2 -748
-800 0 -800 0 0 745 0 745 253 2 c138 2 497 3 797 3 l545 0 3 -747z m2 -1262
l0 -376 -67 0 c-38 0 -395 -3 -795 -7 l-728 -6 0 139 c-1 76 -2 246 -4 376
l-4 237 26 3 c15 2 375 4 800 6 l772 3 0 -375z"/>
</g>
</svg>
