<?xml version="1.0" standalone="no"?>
<!DOCTYPE svg PUBLIC "-//W3C//DTD SVG 20010904//EN"
 "http://www.w3.org/TR/2001/REC-SVG-20010904/DTD/svg10.dtd">
<svg version="1.0" xmlns="http://www.w3.org/2000/svg"
 width="512.000000pt" height="512.000000pt" viewBox="0 0 512.000000 512.000000"
 preserveAspectRatio="xMidYMid meet">

<g transform="translate(0.000000,512.000000) scale(0.100000,-0.100000)"
fill="#000000" stroke="none">
<path d="M203 4422 c-100 -35 -171 -115 -193 -216 -8 -36 -10 -522 -8 -1676
l3 -1625 21 -46 c31 -66 78 -114 142 -146 l57 -28 1677 -3 1677 -2 33 29 c27
24 33 36 33 71 0 35 -6 47 -33 71 l-32 29 -1651 0 c-1522 0 -1653 1 -1679 17
-16 9 -33 27 -39 40 -8 17 -11 394 -11 1263 l0 1240 2360 0 2360 0 0 -1241 c0
-1140 -1 -1243 -17 -1269 -9 -16 -27 -33 -40 -39 -15 -7 -101 -11 -223 -11
-216 0 -242 -5 -266 -51 -18 -35 -18 -63 1 -98 24 -48 51 -53 296 -49 203 3
228 5 270 24 66 31 114 78 146 142 l28 57 0 1655 0 1655 -28 57 c-32 64 -80
111 -146 142 l-46 21 -2320 2 c-2207 2 -2323 2 -2372 -15z m4662 -194 c51 -23
55 -45 55 -328 l0 -260 -2360 0 -2360 0 0 263 c1 280 3 297 51 323 34 19 4574
21 4614 2z"/>
<path d="M448 4011 c-27 -24 -33 -36 -33 -71 0 -35 6 -47 33 -71 36 -32 69
-36 112 -14 91 47 50 185 -54 185 -14 0 -40 -13 -58 -29z"/>
<path d="M848 4011 c-27 -24 -33 -36 -33 -71 0 -35 6 -47 33 -71 36 -32 69
-36 112 -14 91 47 50 185 -54 185 -14 0 -40 -13 -58 -29z"/>
<path d="M1248 4011 c-27 -24 -33 -36 -33 -71 0 -35 6 -47 33 -71 36 -32 69
-36 112 -14 91 47 50 185 -54 185 -14 0 -40 -13 -58 -29z"/>
<path d="M1014 3170 c-114 -17 -229 -102 -281 -209 -27 -53 -28 -65 -33 -241
-5 -145 -9 -191 -22 -215 -9 -16 -64 -77 -123 -135 -119 -117 -135 -141 -135
-200 0 -59 16 -83 135 -200 59 -58 114 -118 123 -135 13 -23 18 -70 22 -215 5
-175 7 -188 33 -242 37 -75 128 -159 202 -187 74 -28 243 -39 300 -19 76 25
96 108 40 164 -22 22 -33 24 -112 24 -142 1 -193 19 -240 90 -21 30 -23 44
-23 175 0 251 -23 314 -167 453 l-96 92 96 93 c144 138 167 201 167 452 0 131
2 145 23 175 47 71 98 89 240 90 79 0 90 2 112 24 36 36 42 73 19 115 -13 24
-31 40 -54 48 -39 13 -147 15 -226 3z"/>
<path d="M3880 3168 c-44 -16 -76 -71 -66 -112 4 -15 18 -39 31 -52 22 -22 33
-24 112 -24 142 -1 193 -19 241 -90 20 -30 22 -44 22 -175 0 -251 23 -314 167
-452 l96 -93 -96 -92 c-144 -139 -167 -202 -167 -453 0 -131 -2 -145 -22 -175
-48 -71 -99 -89 -241 -90 -79 0 -90 -2 -112 -24 -56 -56 -36 -139 40 -164 57
-20 226 -9 300 19 74 28 165 112 202 187 26 54 28 67 33 242 4 145 9 192 22
215 9 17 64 77 123 135 119 117 135 141 135 200 0 59 -16 83 -135 200 -59 58
-114 119 -123 135 -13 23 -18 70 -22 215 -5 175 -7 188 -33 242 -37 75 -128
159 -203 187 -71 27 -251 38 -304 19z"/>
<path d="M1348 2591 c-122 -39 -215 -121 -271 -239 -30 -63 -32 -73 -32 -182
0 -109 2 -119 32 -183 44 -93 119 -169 212 -215 73 -36 78 -37 185 -37 99 0
117 3 168 27 31 14 77 47 102 72 40 39 46 51 46 87 0 32 -6 47 -29 70 -42 42
-94 40 -147 -4 -55 -48 -76 -57 -130 -57 -143 0 -244 98 -244 238 0 106 49
182 142 222 66 28 157 24 215 -10 72 -42 147 -20 167 49 36 125 -221 224 -416
162z"/>
<path d="M2148 2591 c-120 -39 -216 -124 -272 -241 -29 -61 -31 -72 -31 -180
0 -109 2 -119 32 -183 44 -93 119 -169 212 -215 73 -36 78 -37 185 -37 91 1
121 5 166 23 111 44 208 142 252 252 31 79 31 241 0 320 -29 73 -100 161 -164
205 -107 72 -259 94 -380 56z m240 -207 c217 -108 150 -437 -92 -452 -189 -12
-313 171 -232 344 55 119 203 169 324 108z"/>
<path d="M3647 2584 c-15 -8 -32 -26 -37 -40 -14 -36 -13 -737 1 -767 22 -49
54 -57 219 -57 196 0 230 16 230 105 0 27 -8 44 -29 66 -29 28 -32 29 -130 29
l-101 0 0 70 0 70 80 0 c119 0 160 27 160 105 0 27 -8 44 -29 66 -28 28 -33
29 -120 29 l-91 0 0 69 0 69 106 4 c102 3 107 4 130 31 35 41 33 99 -5 138
l-29 29 -164 0 c-126 -1 -169 -4 -191 -16z"/>
<path d="M2859 2561 l-29 -29 0 -372 0 -372 30 -30 30 -30 158 4 c145 3 161 5
212 29 98 46 174 144 206 264 18 64 18 216 0 280 -33 125 -117 225 -222 264
-46 18 -78 21 -205 21 l-151 0 -29 -29z m341 -193 c51 -35 74 -90 79 -182 4
-89 -9 -146 -45 -194 -35 -45 -73 -62 -144 -62 l-60 0 0 230 0 230 69 0 c54 0
75 -5 101 -22z"/>
<path d="M3939 852 c-28 -25 -34 -37 -34 -72 0 -35 6 -47 33 -71 36 -32 69
-36 112 -14 85 44 60 169 -36 182 -36 5 -46 1 -75 -25z"/>
</g>
</svg>
