<?xml version="1.0" standalone="no"?>
<!DOCTYPE svg PUBLIC "-//W3C//DTD SVG 20010904//EN"
 "http://www.w3.org/TR/2001/REC-SVG-20010904/DTD/svg10.dtd">
<svg version="1.0" xmlns="http://www.w3.org/2000/svg"
 width="512.000000pt" height="512.000000pt" viewBox="0 0 512.000000 512.000000"
 preserveAspectRatio="xMidYMid meet">

<g transform="translate(0.000000,512.000000) scale(0.100000,-0.100000)"
fill="#000000" stroke="none">
<path d="M815 4467 c-85 -33 -141 -92 -165 -173 -8 -28 -10 -356 -8 -1194 3
-1119 4 -1156 22 -1194 25 -50 72 -97 122 -122 37 -18 70 -19 798 -22 849 -3
820 -5 893 67 21 20 48 55 58 76 20 39 20 68 20 1215 0 1142 -1 1176 -19 1214
-25 50 -72 97 -122 122 -37 18 -69 19 -804 21 -569 1 -773 -1 -795 -10z m1556
-176 l29 -29 0 -1142 0 -1142 -29 -29 -29 -29 -742 0 -742 0 -29 29 -29 29 0
1142 0 1142 29 29 29 29 742 0 742 0 29 -29z"/>
<path d="M2739 4031 c-16 -16 -29 -36 -29 -45 0 -26 21 -63 44 -75 11 -6 185
-56 386 -111 201 -56 386 -108 412 -116 53 -17 78 -48 78 -97 0 -32 -555
-2122 -586 -2204 -11 -30 -24 -46 -50 -58 -39 -18 41 -37 -769 180 -278 74
-479 123 -493 120 -34 -8 -62 -42 -62 -74 0 -63 -6 -61 625 -233 629 -171 676
-180 756 -146 48 21 106 74 128 117 11 20 152 533 315 1141 310 1157 314 1177
282 1254 -17 42 -80 113 -117 131 -30 16 -848 245 -874 245 -9 0 -30 -13 -46
-29z"/>
<path d="M3849 3141 c-26 -21 -32 -79 -11 -104 7 -8 164 -102 348 -208 352
-203 371 -218 362 -278 -5 -32 -1100 -1936 -1134 -1971 -49 -51 -57 -48 -579
255 -264 153 -508 292 -541 310 -67 36 -100 36 -130 3 -22 -23 -23 -83 -3
-103 14 -14 987 -578 1072 -621 99 -51 207 -38 285 33 32 29 171 262 598 1003
306 531 565 983 575 1005 21 46 24 120 7 178 -25 82 -79 123 -435 327 -225
129 -341 190 -361 190 -17 0 -40 -8 -53 -19z"/>
</g>
</svg>
