<?xml version="1.0" standalone="no"?>
<!DOCTYPE svg PUBLIC "-//W3C//DTD SVG 20010904//EN"
 "http://www.w3.org/TR/2001/REC-SVG-20010904/DTD/svg10.dtd">
<svg version="1.0" xmlns="http://www.w3.org/2000/svg"
 width="512.000000pt" height="512.000000pt" viewBox="0 0 512.000000 512.000000"
 preserveAspectRatio="xMidYMid meet">

<g transform="translate(0.000000,512.000000) scale(0.100000,-0.100000)"
fill="#000000" stroke="none">
<path d="M2400 4419 c-375 -98 -1451 -449 -1487 -485 -13 -13 -23 -35 -23 -49
0 -29 40 -75 66 -75 9 0 163 49 343 110 340 114 513 169 916 291 232 71 243
73 345 73 98 1 116 -3 280 -52 730 -221 1263 -401 1787 -602 312 -121 331
-133 340 -221 5 -54 -19 -105 -63 -135 -49 -32 -540 -219 -929 -353 l-150 -52
-36 20 c-72 41 -1195 572 -1219 577 -38 8 -80 -29 -80 -70 0 -18 6 -39 13 -48
6 -9 255 -132 552 -273 296 -141 546 -260 554 -264 15 -9 -126 -58 -474 -165
-572 -175 -558 -173 -826 -95 -785 227 -2015 657 -2109 736 -57 48 -64 143
-14 202 24 29 155 86 429 186 134 49 171 93 130 152 -33 47 -41 46 -385 -88
-206 -80 -217 -86 -272 -139 -43 -43 -60 -69 -72 -110 -39 -130 4 -265 105
-335 43 -31 309 -136 676 -270 l242 -88 3 -446 3 -446 28 -47 c15 -26 39 -56
55 -66 97 -70 930 -367 1337 -477 91 -25 104 -26 155 -15 139 31 642 193 919
296 79 30 145 54 147 54 2 0 4 -51 4 -114 l0 -114 -45 -22 c-61 -29 -129 -107
-146 -167 -10 -35 -14 -111 -14 -281 0 -234 0 -234 24 -253 21 -17 42 -19 257
-19 223 0 235 1 255 21 20 20 20 29 17 277 l-3 257 -27 46 c-33 56 -84 103
-133 120 l-35 13 2 150 3 149 70 30 c93 39 120 59 152 115 24 41 28 60 31 147
4 91 2 103 -18 128 -28 35 -77 37 -108 4 -19 -20 -22 -35 -22 -100 0 -42 -5
-87 -11 -100 -10 -22 -65 -57 -89 -57 -6 0 -10 156 -10 418 l0 419 41 12 c23
7 47 15 55 18 12 4 14 -27 14 -189 0 -210 4 -229 55 -242 29 -7 79 15 89 39 3
9 6 114 6 233 l0 217 68 23 c120 42 645 240 734 277 138 58 204 139 215 265 9
93 -17 162 -85 229 -53 53 -68 61 -232 125 -531 207 -1116 408 -1721 591 -156
48 -320 95 -364 106 -102 24 -218 24 -315 -2z m-1001 -1743 c243 -80 486 -156
791 -249 l235 -71 135 0 135 0 225 68 c124 37 340 104 480 148 140 44 263 83
273 85 16 5 17 -20 17 -420 l0 -425 -202 -75 c-227 -83 -523 -182 -761 -252
l-158 -46 -221 66 c-339 102 -726 238 -1009 354 -98 40 -129 58 -138 77 -12
28 -17 804 -4 804 4 0 95 -29 202 -64z m2416 -1410 c66 -28 75 -58 75 -258 l0
-178 -131 0 -131 0 4 179 c3 201 9 218 79 253 41 22 59 22 104 4z"/>
</g>
</svg>
