<?xml version="1.0" standalone="no"?>
<!DOCTYPE svg PUBLIC "-//W3C//DTD SVG 20010904//EN"
 "http://www.w3.org/TR/2001/REC-SVG-20010904/DTD/svg10.dtd">
<svg version="1.0" xmlns="http://www.w3.org/2000/svg"
 width="1119.000000pt" height="455.000000pt" viewBox="0 0 1119.000000 455.000000"
 preserveAspectRatio="xMidYMid meet">
<metadata>
Created by potrace 1.16, written by Peter Selinger 2001-2019
</metadata>
<g transform="translate(0.000000,455.000000) scale(0.100000,-0.100000)"
fill="#000000" stroke="none">
<path d="M8905 3409 c-296 -53 -531 -174 -722 -372 -105 -109 -160 -186 -219
-312 -60 -126 -84 -225 -91 -370 -10 -213 27 -386 122 -580 181 -369 575 -665
1065 -801 104 -29 155 -30 198 -4 72 44 89 118 50 222 -12 34 -17 62 -12 67 5
4 59 20 119 36 195 49 377 133 513 239 91 69 214 205 270 295 196 319 189 721
-17 1043 -173 270 -495 473 -845 533 -97 16 -347 19 -431 4z m363 -159 c281
-36 558 -184 717 -385 67 -84 134 -212 166 -315 31 -99 34 -308 5 -410 -56
-201 -181 -375 -360 -501 -133 -95 -245 -143 -445 -194 -105 -27 -140 -40
-164 -62 -57 -54 -71 -130 -41 -219 8 -25 14 -47 12 -49 -8 -8 -275 88 -372
134 -324 152 -586 413 -685 681 -67 181 -87 380 -53 541 60 291 273 545 572
683 198 91 422 124 648 96z"/>
<path d="M9000 2940 c-36 -16 -202 -87 -370 -158 -252 -106 -306 -132 -308
-150 -2 -13 5 -26 20 -36 13 -8 180 -87 371 -176 l348 -162 62 4 c54 4 100 23
372 150 442 207 406 188 403 218 -3 23 -34 38 -373 182 -416 176 -414 176
-525 128z"/>
<path d="M8330 2351 l0 -171 40 0 40 0 0 148 0 148 -40 23 -40 22 0 -170z"/>
<path d="M8636 2337 c-16 -12 -17 -28 -14 -187 3 -174 3 -175 34 -230 42 -74
90 -108 228 -163 193 -78 196 -75 196 149 0 182 -7 218 -52 261 -26 24 -199
109 -363 179 -6 2 -19 -2 -29 -9z"/>
<path d="M9391 2270 c-96 -44 -183 -88 -194 -97 -45 -41 -51 -70 -55 -243 -4
-242 5 -251 186 -179 128 51 176 80 219 137 46 61 53 97 53 278 0 150 -6 184
-29 184 -4 0 -84 -36 -180 -80z"/>
<path d="M8343 2143 c-34 -7 -73 -59 -73 -99 0 -49 44 -96 92 -97 19 0 48 7
62 17 91 59 28 199 -81 179z"/>
<path d="M6610 2220 l0 -661 72 3 c64 3 73 5 76 23 1 11 5 31 8 44 l5 24 27
-26 c15 -14 54 -38 87 -54 53 -25 72 -28 155 -28 84 0 101 3 148 28 101 53
171 136 213 253 31 84 31 244 0 328 -30 85 -62 135 -120 190 -77 71 -127 91
-236 91 -103 0 -161 -18 -231 -71 l-44 -34 0 275 0 275 -80 0 -80 0 0 -660z
m476 65 c60 -17 113 -69 146 -140 19 -42 23 -67 23 -155 0 -95 -3 -111 -28
-162 -55 -111 -153 -163 -263 -139 -108 25 -177 106 -197 232 -26 170 46 325
170 363 62 19 89 19 149 1z"/>
<path d="M870 2175 l0 -615 365 0 365 0 0 75 0 75 -280 0 -280 0 0 540 0 540
-85 0 -85 0 0 -615z"/>
<path d="M1720 2700 l0 -90 80 0 80 0 0 90 0 90 -80 0 -80 0 0 -90z"/>
<path d="M4920 2175 l0 -615 365 0 365 0 0 75 0 75 -280 0 -280 0 0 540 0 540
-85 0 -85 0 0 -615z"/>
<path d="M2400 2426 c-46 -13 -107 -43 -147 -72 -22 -16 -23 -15 -29 25 l-7
41 -63 0 -64 0 0 -430 0 -430 80 0 80 0 0 318 0 318 28 27 c49 47 118 71 207
71 67 1 87 -3 124 -24 87 -49 101 -112 101 -456 l0 -254 80 0 80 0 0 269 c0
147 -4 290 -9 317 -26 134 -87 226 -179 267 -59 25 -215 33 -282 13z"/>
<path d="M3270 2427 c-91 -25 -172 -96 -212 -182 -19 -42 -23 -66 -22 -145 1
-114 20 -165 89 -239 l47 -50 -31 -16 c-37 -19 -61 -62 -61 -111 0 -28 8 -44
36 -72 23 -23 32 -38 24 -40 -22 -8 -91 -74 -105 -103 -39 -75 -26 -166 33
-231 77 -85 215 -124 407 -115 187 8 301 62 351 164 23 47 26 62 21 120 -11
144 -90 196 -372 243 -200 34 -232 43 -240 72 -13 39 9 48 114 41 73 -4 110
-2 151 10 106 31 190 109 226 209 31 89 15 227 -36 297 l-20 28 38 7 c20 3 51
6 69 6 33 0 38 9 46 90 3 22 -100 14 -171 -12 l-54 -20 -57 28 c-45 22 -72 28
-141 31 -49 1 -104 -3 -130 -10z m221 -140 c132 -68 131 -304 -1 -375 -39 -20
-55 -23 -117 -19 -79 4 -107 18 -147 70 -80 105 -34 304 78 336 60 18 140 13
187 -12z m-51 -772 c153 -27 214 -51 239 -96 30 -54 -13 -116 -97 -140 -69
-20 -244 -18 -309 5 -69 23 -103 63 -103 119 0 24 8 51 18 64 21 27 82 73 97
73 6 0 75 -11 155 -25z"/>
<path d="M4188 2421 c-75 -24 -116 -51 -171 -110 -80 -85 -117 -187 -117 -321
0 -136 38 -237 121 -325 89 -94 190 -131 338 -123 136 8 232 58 308 161 59 82
85 167 85 287 0 203 -87 346 -257 421 -71 32 -227 37 -307 10z m271 -156 c83
-46 131 -146 131 -275 0 -131 -48 -229 -135 -277 -41 -22 -63 -27 -120 -28
-177 -1 -269 103 -269 305 0 209 103 319 288 305 36 -3 75 -14 105 -30z"/>
<path d="M5943 2426 c-67 -17 -163 -64 -163 -80 0 -7 5 -38 11 -69 l12 -56 51
29 c99 55 230 62 298 16 38 -25 53 -53 62 -117 l7 -46 -89 -7 c-203 -15 -348
-83 -405 -190 -16 -31 -22 -59 -22 -116 0 -64 4 -82 28 -123 53 -90 145 -134
260 -125 78 7 141 34 197 84 24 22 45 35 47 29 11 -33 47 -76 75 -91 17 -9 60
-19 93 -22 l62 -4 11 57 c16 77 16 75 -14 75 -71 0 -84 36 -84 244 0 326 -34
436 -155 498 -50 26 -204 34 -282 14z m277 -540 l0 -104 -39 -35 c-64 -58 -97
-71 -179 -72 -71 0 -75 1 -103 33 -25 27 -29 41 -29 88 0 88 35 135 125 164
42 14 125 27 188 29 l37 1 0 -104z"/>
<path d="M1720 1990 l0 -430 80 0 80 0 0 430 0 430 -80 0 -80 0 0 -430z"/>
</g>
</svg>
