<?xml version="1.0" standalone="no"?>
<!DOCTYPE svg PUBLIC "-//W3C//DTD SVG 20010904//EN"
 "http://www.w3.org/TR/2001/REC-SVG-20010904/DTD/svg10.dtd">
<svg version="1.0" xmlns="http://www.w3.org/2000/svg"
 width="512.000000pt" height="512.000000pt" viewBox="0 0 512.000000 512.000000"
 preserveAspectRatio="xMidYMid meet">

<g transform="translate(0.000000,512.000000) scale(0.100000,-0.100000)"
fill="#000000" stroke="none">
<path d="M90 5098 c-33 -17 -51 -35 -68 -68 -21 -41 -23 -56 -20 -172 3 -110
6 -130 24 -155 28 -38 82 -73 111 -73 13 0 26 -6 28 -12 3 -7 4 -391 3 -853
l-3 -840 -82 79 -83 79 0 -1541 0 -1542 1632 0 c1600 0 1632 0 1613 19 -11 10
-519 490 -1130 1066 -610 576 -1111 1052 -1113 1056 -2 5 502 9 1147 9 l1151
0 0 -713 c0 -791 -1 -777 65 -854 19 -23 54 -51 78 -62 43 -21 54 -21 765 -21
797 0 761 -3 831 63 18 18 44 55 57 82 l24 50 0 1116 c0 1259 5 1176 -77 1256
-73 71 -89 73 -530 73 l-383 0 0 245 0 245 335 0 c335 0 407 6 470 37 64 33
114 83 147 151 l33 67 0 165 c0 153 -2 168 -23 212 -36 71 -93 130 -158 163
l-59 30 -373 3 -373 3 3 82 3 81 31 7 c45 9 89 43 108 83 12 26 16 65 16 164
0 142 -9 169 -73 216 l-28 21 -2027 3 -2027 2 -45 -22z m4040 -228 l0 -80
-1980 0 -1980 0 0 80 0 80 1980 0 1980 0 0 -80z m-170 -330 l0 -80 -713 0
-712 0 -309 -206 c-169 -113 -304 -209 -300 -214 5 -4 145 -98 311 -209 l303
-201 710 0 710 0 0 -245 0 -245 -700 0 -700 0 0 -85 0 -85 379 0 380 0 -10
-32 c-5 -18 -9 -54 -9 -80 l0 -48 -370 0 -370 0 0 -85 0 -85 370 0 370 0 0
-165 0 -165 -1242 0 -1243 1 -242 230 -243 230 0 925 0 924 1815 0 1815 0 0
-80z m500 -330 l0 -80 -910 0 -910 0 0 80 0 80 910 0 910 0 0 -80z m426 53
c53 -38 64 -75 64 -221 0 -117 -2 -132 -22 -162 -45 -66 -67 -75 -194 -78
l-114 -4 0 247 0 247 118 -4 c102 -3 121 -6 148 -25z m-2406 -218 l0 -175
-122 81 c-68 45 -127 85 -132 89 -6 6 237 180 251 180 2 0 3 -79 3 -175z
m1980 -165 l0 -80 -910 0 -910 0 0 80 0 80 910 0 910 0 0 -80z m467 -932 l23
-21 0 -1109 0 -1109 -25 -24 -24 -25 -681 0 c-721 0 -726 0 -744 45 -3 9 -6
511 -6 1116 l0 1100 25 24 24 25 692 0 693 0 23 -22z m-3392 -1543 c699 -659
1279 -1206 1290 -1216 19 -19 -12 -19 -1318 -19 l-1337 0 0 80 0 80 80 0 80 0
0 85 0 85 -80 0 -80 0 0 80 0 80 80 0 80 0 0 85 0 85 -80 0 -80 0 0 80 0 80
80 0 80 0 0 85 0 85 -80 0 -80 0 0 80 0 80 80 0 80 0 0 85 0 85 -80 0 -80 0 0
80 0 80 80 0 80 0 0 85 0 85 -80 0 -80 0 0 80 0 80 80 0 80 0 0 85 0 85 -80 0
-80 0 0 272 0 272 48 -45 c26 -26 619 -585 1317 -1244z"/>
<path d="M1166 4118 c-3 -7 -34 -242 -71 -523 -37 -280 -70 -526 -74 -545 l-7
-35 -114 143 -114 142 -143 0 -143 0 0 -80 0 -80 103 0 102 -1 210 -264 c115
-145 211 -262 213 -260 3 2 182 1326 182 1342 0 2 95 3 210 3 l210 0 0 85 0
85 -280 0 c-216 0 -282 -3 -284 -12z"/>
<path d="M1487 3633 l-57 -58 177 -177 178 -178 -178 -178 -177 -177 57 -58
58 -57 177 177 178 178 178 -178 177 -177 58 57 57 58 -177 177 -178 178 178
178 177 177 -57 58 -58 57 -177 -177 -178 -178 -178 178 -177 177 -58 -57z"/>
<path d="M2560 3385 l0 -85 620 0 620 0 0 85 0 85 -620 0 -620 0 0 -85z"/>
<path d="M3637 2803 c-4 -3 -7 -152 -7 -330 l0 -323 580 0 580 0 0 330 0 330
-573 0 c-316 0 -577 -3 -580 -7z m983 -328 l0 -165 -410 0 -410 0 0 165 0 165
410 0 410 0 0 -165z"/>
<path d="M3800 1900 l0 -79 -82 -3 -83 -3 -3 -82 -3 -83 86 0 85 0 0 -80 0
-80 80 0 80 0 0 80 0 80 85 0 85 0 0 85 0 85 -85 0 -85 0 0 80 0 80 -80 0 -80
0 0 -80z"/>
<path d="M4294 1807 c-3 -8 -4 -45 -2 -83 l3 -69 248 -3 247 -2 0 85 0 85
-245 0 c-197 0 -247 -3 -251 -13z"/>
<path d="M3630 1240 l0 -80 250 0 250 0 0 80 0 80 -250 0 -250 0 0 -80z"/>
<path d="M4370 1235 l-54 -55 54 -55 54 -55 -52 -53 -52 -53 58 -57 57 -57 53
52 52 53 53 -53 53 -52 59 60 59 60 -52 53 -52 52 52 53 53 52 -57 57 -58 58
-53 -53 -53 -52 -49 50 c-27 27 -54 50 -60 50 -6 0 -35 -25 -65 -55z"/>
<path d="M3630 910 l0 -80 250 0 250 0 0 80 0 80 -250 0 -250 0 0 -80z"/>
<path d="M500 1211 l0 -711 757 0 c737 0 757 0 738 18 -11 11 -344 325 -740
698 -396 373 -728 685 -738 693 -16 13 -17 -25 -17 -698z m618 -93 c246 -231
456 -429 467 -440 19 -17 6 -18 -453 -18 l-472 0 0 440 c0 242 3 440 6 440 3
0 206 -190 452 -422z"/>
</g>
</svg>
