<?xml version="1.0" standalone="no"?>
<!DOCTYPE svg PUBLIC "-//W3C//DTD SVG 20010904//EN"
 "http://www.w3.org/TR/2001/REC-SVG-20010904/DTD/svg10.dtd">
<svg version="1.0" xmlns="http://www.w3.org/2000/svg"
 width="512.000000pt" height="512.000000pt" viewBox="0 0 512.000000 512.000000"
 preserveAspectRatio="xMidYMid meet">

<g transform="translate(0.000000,512.000000) scale(0.100000,-0.100000)"
fill="#000000" stroke="none">
<path d="M2403 5105 c-319 -58 -608 -273 -839 -626 l-62 -96 -109 -6 c-390
-22 -693 -139 -901 -347 -117 -117 -185 -234 -239 -409 -25 -80 -27 -99 -28
-276 0 -169 3 -200 24 -280 40 -151 69 -233 132 -365 l60 -126 -56 -113 c-95
-190 -149 -371 -164 -549 -10 -110 -1 -152 36 -182 65 -51 156 -7 166 81 22
183 33 246 62 335 18 56 46 127 62 158 l29 57 49 -68 c105 -142 298 -353 451
-491 l66 -60 23 -103 c47 -214 124 -460 193 -611 l31 -68 -26 0 c-14 0 -72 7
-128 15 -190 29 -351 88 -493 183 -11 7 -11 21 -3 66 50 272 -252 472 -486
320 -92 -59 -143 -154 -143 -264 0 -144 96 -269 234 -306 71 -19 116 -17 188
7 l61 20 52 -35 c188 -124 457 -205 746 -222 l111 -7 62 -96 c175 -267 408
-476 636 -568 131 -52 205 -66 360 -66 155 0 229 14 360 66 230 93 472 311
643 579 l62 98 90 0 c250 0 580 77 635 148 24 30 26 89 4 121 -9 13 -32 29
-51 37 -31 13 -40 12 -121 -15 -48 -16 -121 -36 -162 -45 -79 -17 -271 -38
-279 -31 -2 3 9 33 24 67 70 161 145 399 190 607 l23 103 66 60 c153 138 346
349 451 491 l49 68 28 -56 c40 -78 87 -222 104 -318 14 -85 18 -258 6 -336 -7
-44 -8 -45 -62 -61 -75 -23 -109 -42 -152 -87 -184 -193 -73 -509 192 -540 98
-11 225 42 285 121 94 123 84 304 -22 414 l-44 47 12 70 c7 38 12 129 12 200
-2 215 -55 419 -167 645 l-57 114 60 126 c63 132 92 214 132 365 21 80 24 111
24 280 -1 177 -3 196 -28 276 -54 177 -120 290 -238 408 -232 232 -583 351
-1032 351 -305 0 -589 -46 -934 -152 l-103 -31 -102 31 c-220 67 -411 109
-611 135 l-98 12 59 80 c71 95 194 222 277 283 81 60 198 117 292 143 90 25
250 30 347 9 l58 -12 -5 -41 c-3 -23 -1 -64 4 -91 43 -228 293 -336 486 -210
92 59 143 154 143 264 0 110 -51 205 -143 264 -97 63 -206 71 -313 22 -52 -24
-56 -24 -97 -10 -112 40 -321 53 -454 29z m754 -222 c32 -21 47 -75 33 -117
-24 -73 -115 -92 -171 -37 -22 23 -29 39 -29 69 0 88 91 134 167 85z m-1342
-734 c101 -10 388 -63 408 -76 4 -2 -79 -49 -185 -102 -204 -103 -373 -202
-525 -307 -62 -42 -93 -59 -93 -49 0 45 126 388 186 507 22 44 25 46 61 42 21
-2 88 -8 148 -15z m2005 6 c161 -14 340 -68 485 -147 120 -64 249 -196 303
-308 54 -111 72 -183 79 -306 9 -164 -39 -388 -120 -562 l-25 -54 -30 44 c-88
128 -321 375 -510 541 -41 36 -45 44 -82 180 -51 185 -105 341 -174 500 l-55
128 27 -5 c15 -3 61 -8 102 -11z m-2462 -62 c-68 -152 -156 -428 -194 -616
-17 -83 -21 -91 -64 -129 -177 -159 -396 -392 -485 -516 l-37 -53 -25 53 c-43
92 -91 249 -109 357 -19 120 -15 270 11 366 55 204 203 379 410 482 127 63
337 117 477 122 l47 1 -31 -67z m2150 -43 c74 -156 180 -430 167 -430 -2 0
-39 24 -82 54 -140 96 -314 198 -511 297 -106 53 -189 99 -185 102 34 21 404
84 504 86 l56 1 51 -110z m-831 -127 c166 -65 492 -233 661 -338 78 -49 207
-138 286 -196 l143 -107 12 -74 c59 -350 73 -591 51 -920 -10 -139 -32 -342
-46 -409 -5 -26 -34 -52 -194 -172 l-65 -49 -6 79 c-6 84 -12 103 -42 146 -11
16 -141 109 -289 208 l-269 180 44 52 c103 120 127 207 127 452 0 259 -31 355
-156 479 -167 168 -418 205 -627 93 -121 -64 -227 -199 -262 -332 -21 -82 -21
-397 0 -478 20 -78 59 -152 112 -214 l44 -52 -269 -180 c-148 -99 -278 -192
-289 -208 -30 -43 -36 -62 -42 -146 l-6 -79 -65 49 c-160 120 -189 146 -194
172 -27 133 -56 486 -56 680 0 159 17 407 40 571 l19 135 38 32 c174 148 476
341 748 478 151 77 399 188 432 195 2 0 56 -21 120 -47z m15 -755 c70 -32 124
-86 157 -157 24 -51 26 -69 29 -206 5 -177 -6 -239 -53 -312 -60 -92 -155
-143 -265 -143 -144 0 -269 96 -306 234 -19 71 -19 317 1 382 56 189 259 283
437 202z m1517 -313 c96 -111 211 -265 211 -283 0 -31 -186 -273 -309 -402
l-82 -85 5 50 c3 28 8 168 12 312 6 239 -3 470 -23 578 -5 29 -3 28 52 -25 31
-30 92 -95 134 -145z m-3129 30 c-12 -138 -8 -613 6 -750 l5 -50 -82 85 c-123
129 -309 371 -309 402 0 15 110 166 188 258 72 84 195 211 200 205 2 -2 -2
-70 -8 -150z m1410 -745 c43 -7 91 -6 144 1 l79 10 298 -198 298 -198 1 -117
0 -117 -57 -37 c-146 -93 -587 -303 -674 -321 -21 -4 -65 9 -161 48 -145 58
-459 213 -550 272 l-58 38 0 117 1 117 297 197 c163 109 302 198 307 198 6 0
39 -5 75 -10z m-977 -683 c132 -93 334 -212 526 -308 l194 -97 -39 -11 c-138
-37 -418 -81 -518 -81 l-53 0 -31 68 c-73 160 -172 435 -172 477 0 19 0 19 93
-48z m2151 -78 c-36 -114 -110 -301 -145 -371 -19 -37 -21 -38 -72 -38 -79 0
-284 27 -421 56 -66 14 -122 27 -124 29 -2 1 72 40 164 85 176 88 416 229 549
323 54 39 81 53 83 43 2 -7 -13 -65 -34 -127z m-3156 -34 c15 -18 22 -39 22
-66 0 -114 -165 -141 -200 -33 -37 110 101 187 178 99z m4249 18 c32 -21 47
-75 33 -117 -24 -73 -115 -92 -171 -37 -22 23 -29 39 -29 69 0 88 91 134 167
85z m-1927 -513 c111 -28 342 -70 482 -87 l66 -8 -54 -75 c-69 -94 -209 -239
-289 -298 -299 -221 -651 -221 -950 0 -103 76 -267 254 -328 354 -5 8 23 15
91 23 181 22 432 78 627 139 l90 29 75 -24 c41 -13 127 -36 190 -53z"/>
<path d="M1170 4695 l0 -105 110 0 110 0 0 105 0 105 -110 0 -110 0 0 -105z"/>
<path d="M3730 4695 l0 -105 110 0 110 0 0 105 0 105 -110 0 -110 0 0 -105z"/>
<path d="M0 2560 l0 -110 105 0 105 0 0 110 0 110 -105 0 -105 0 0 -110z"/>
<path d="M4910 2560 l0 -110 105 0 105 0 0 110 0 110 -105 0 -105 0 0 -110z"/>
<path d="M1170 425 l0 -105 110 0 110 0 0 105 0 105 -110 0 -110 0 0 -105z"/>
<path d="M3730 425 l0 -105 110 0 110 0 0 105 0 105 -110 0 -110 0 0 -105z"/>
</g>
</svg>
