<?xml version="1.0" standalone="no"?>
<!DOCTYPE svg PUBLIC "-//W3C//DTD SVG 20010904//EN"
 "http://www.w3.org/TR/2001/REC-SVG-20010904/DTD/svg10.dtd">
<svg version="1.0" xmlns="http://www.w3.org/2000/svg"
 width="512.000000pt" height="512.000000pt" viewBox="0 0 512.000000 512.000000"
 preserveAspectRatio="xMidYMid meet">

<g transform="translate(0.000000,512.000000) scale(0.100000,-0.100000)"
fill="#000000" stroke="none">
<path d="M378 4351 l-33 -29 0 -1762 0 -1762 33 -29 32 -29 1778 0 c1160 0
1799 4 1840 10 348 57 631 316 719 659 34 135 34 297 0 432 -84 327 -352 586
-673 648 l-84 16 0 891 c0 626 -3 900 -11 923 -23 65 108 61 -1818 61 l-1751
0 -32 -29z m3412 -1011 l0 -840 -29 0 c-35 0 -191 -44 -233 -66 l-30 -16 -217
215 c-217 216 -233 228 -291 218 -17 -2 -155 -133 -425 -402 l-400 -399 -390
391 c-215 215 -398 395 -409 401 -10 5 -34 10 -54 10 -33 0 -58 -23 -396 -361
-199 -199 -364 -361 -369 -361 -4 0 -7 461 -7 1025 l0 1025 1625 0 1625 0 0
-840z m-532 -1097 c-121 -125 -202 -278 -239 -448 -18 -83 -16 -274 4 -357 42
-171 111 -300 231 -425 l69 -73 -1392 0 -1391 0 0 452 0 453 382 382 c211 211
387 383 393 383 5 0 190 -180 410 -400 392 -391 401 -400 440 -400 39 0 48 9
445 405 l405 405 155 -155 154 -154 -66 -68z m806 47 c121 -31 208 -82 307
-180 143 -142 203 -285 203 -485 0 -199 -65 -356 -206 -493 -133 -131 -288
-192 -482 -192 -303 0 -557 185 -653 475 -23 70 -27 96 -27 210 0 114 4 140
27 210 74 225 255 396 479 455 100 26 250 26 352 0z"/>
<path d="M2038 3721 c-82 -26 -138 -62 -195 -125 -161 -176 -157 -439 8 -604
100 -100 197 -137 343 -130 77 3 101 9 159 37 273 131 340 482 132 700 -119
125 -291 172 -447 122z m238 -205 c153 -71 180 -289 51 -403 -147 -129 -384
-35 -404 160 -20 193 174 326 353 243z"/>
<path d="M3854 2061 c-12 -5 -31 -22 -43 -37 -19 -24 -21 -39 -21 -165 l0
-139 -141 0 -141 0 -29 -29 c-40 -41 -41 -96 -1 -134 28 -27 30 -27 170 -27
l142 0 0 -141 0 -141 35 -35 c31 -31 40 -35 72 -30 20 4 48 18 62 32 25 25 26
30 29 170 l3 145 141 0 140 0 29 29 c21 22 29 39 29 66 0 27 -8 44 -29 66
l-29 29 -140 0 -141 0 -3 145 c-3 139 -4 146 -28 170 -28 28 -74 39 -106 26z"/>
</g>
</svg>
