<?xml version="1.0" standalone="no"?>
<!DOCTYPE svg PUBLIC "-//W3C//DTD SVG 20010904//EN"
 "http://www.w3.org/TR/2001/REC-SVG-20010904/DTD/svg10.dtd">
<svg version="1.0" xmlns="http://www.w3.org/2000/svg"
 width="512.000000pt" height="512.000000pt" viewBox="0 0 512.000000 512.000000"
 preserveAspectRatio="xMidYMid meet">

<g transform="translate(0.000000,512.000000) scale(0.100000,-0.100000)"
fill="#000000" stroke="none">
<path d="M1759 5097 c-127 -53 -327 -178 -459 -284 -98 -79 -270 -257 -346
-358 -318 -420 -475 -944 -435 -1450 57 -706 439 -1323 1045 -1685 182 -109
442 -209 651 -250 61 -11 120 -23 133 -26 21 -4 22 -8 16 -52 -3 -26 -15 -123
-27 -217 l-22 -170 -300 -5 c-299 -5 -300 -5 -357 -32 -129 -60 -198 -166
-206 -315 -6 -108 2 -146 41 -190 59 -67 -10 -63 1152 -63 1162 0 1093 -4
1152 63 39 45 47 84 41 196 -9 147 -76 248 -206 309 -57 27 -58 27 -357 32
l-300 5 -26 215 c-29 229 -29 229 21 230 14 0 74 11 135 25 255 58 512 164
587 242 49 50 68 99 68 173 0 70 -15 112 -59 162 l-31 35 68 52 c101 77 255
234 337 342 309 409 428 935 325 1435 -47 229 -164 496 -297 683 -419 584
-1151 864 -1846 706 -56 -13 -110 -26 -119 -30 -13 -5 -19 0 -23 22 -15 65
-28 92 -61 132 -74 86 -190 112 -295 68z m165 -177 c26 -26 26 -82 1 -111 -11
-11 -51 -37 -90 -56 -534 -270 -902 -791 -975 -1383 -24 -195 -7 -463 41 -652
87 -344 284 -671 544 -900 295 -261 655 -414 1053 -450 291 -26 622 34 899
162 106 49 132 50 168 8 28 -33 29 -74 2 -106 -17 -22 -159 -86 -291 -131
-213 -74 -392 -103 -631 -102 -532 1 -1010 198 -1385 571 -248 247 -419 544
-509 881 -123 460 -77 939 132 1364 172 349 426 627 751 823 190 114 243 129
290 82z m1031 -170 c485 -94 902 -404 1129 -840 389 -749 135 -1683 -579
-2128 -429 -267 -965 -318 -1441 -135 -52 20 -94 41 -94 47 0 7 16 59 35 116
19 57 38 131 41 164 7 74 -15 177 -54 250 -53 99 -301 318 -429 378 -108 51
-251 53 -368 4 l-60 -25 -13 30 c-24 57 -63 205 -78 299 -30 179 -17 468 27
624 l11 38 36 -35 c137 -130 312 -207 472 -207 109 0 187 38 239 117 66 100
63 203 -11 313 -28 43 -38 67 -34 83 3 14 102 100 264 230 143 114 276 225
297 248 59 66 98 159 103 249 2 42 -1 101 -7 130 -6 29 -9 56 -5 59 26 27 363
21 519 -9z m-685 -68 c26 -97 -2 -204 -71 -268 -19 -17 -146 -121 -284 -231
-265 -211 -289 -238 -301 -325 -8 -58 11 -123 53 -181 47 -63 48 -110 4 -149
-37 -33 -89 -37 -185 -12 -93 24 -165 67 -262 158 l-87 82 51 104 c158 328
420 590 749 752 102 50 301 121 315 112 4 -3 12 -21 18 -42z m-785 -2231 c54
-24 184 -124 272 -209 123 -117 144 -207 89 -372 -16 -47 -31 -88 -33 -93 -8
-13 -180 113 -272 199 -130 123 -253 281 -320 412 -19 37 -19 40 -3 45 9 3 35
13 57 21 56 21 160 20 210 -3z m1265 -1426 c1 0 50 -396 50 -407 0 -16 -14
-18 -155 -18 -141 0 -155 2 -155 18 0 9 11 105 25 212 14 107 25 195 25 195 0
1 47 1 105 0 58 0 105 0 105 0z m803 -609 c77 -28 116 -92 117 -188 l0 -58
-1025 0 -1025 0 0 58 c1 96 40 160 117 188 56 20 1760 20 1816 0z"/>
<path d="M2730 4090 c-179 -12 -288 -55 -403 -160 -211 -193 -253 -519 -97
-757 105 -159 307 -272 489 -273 50 0 102 -28 118 -63 6 -14 37 -152 68 -308
31 -156 65 -303 77 -326 11 -24 40 -61 65 -82 112 -99 271 -92 375 16 52 53
69 102 79 223 9 108 35 213 72 285 11 22 85 145 164 273 93 149 152 254 164
293 25 80 35 259 20 374 -21 172 -119 315 -263 383 -67 32 -230 72 -393 96
-94 14 -372 38 -405 34 -8 0 -67 -4 -130 -8z m435 -186 c163 -19 358 -59 410
-84 66 -32 112 -77 144 -142 31 -61 31 -62 31 -223 0 -113 -4 -174 -14 -201
-7 -22 -76 -138 -152 -259 -198 -316 -235 -407 -253 -614 -8 -100 -10 -106
-40 -133 -47 -42 -113 -34 -147 17 -10 15 -42 149 -75 315 -33 163 -67 306
-78 328 -52 102 -126 149 -258 162 -111 12 -170 30 -233 70 -221 142 -260 443
-83 640 87 97 169 130 343 139 154 8 238 5 405 -15z"/>
</g>
</svg>
