<?xml version="1.0" standalone="no"?>
<!DOCTYPE svg PUBLIC "-//W3C//DTD SVG 20010904//EN"
 "http://www.w3.org/TR/2001/REC-SVG-20010904/DTD/svg10.dtd">
<svg version="1.0" xmlns="http://www.w3.org/2000/svg"
 width="512.000000pt" height="512.000000pt" viewBox="0 0 512.000000 512.000000"
 preserveAspectRatio="xMidYMid meet">

<g transform="translate(0.000000,512.000000) scale(0.100000,-0.100000)"
fill="#8c8ce7" stroke="none">
<path d="M1110 3844 c-14 -2 -59 -9 -100 -15 -170 -25 -372 -110 -515 -216
-107 -80 -172 -151 -181 -198 -15 -81 38 -164 119 -186 60 -16 107 2 178 67
168 154 338 222 584 231 317 12 552 -39 1330 -292 588 -191 789 -245 1039
-280 171 -24 294 -28 425 -16 282 28 504 116 695 278 90 75 108 101 114 161 8
91 -46 160 -133 170 -65 7 -87 -2 -162 -66 -178 -152 -330 -214 -562 -228
-281 -17 -601 51 -1256 266 -798 263 -1031 318 -1370 325 -99 2 -191 2 -205
-1z"/>
<path d="M1103 2179 c-255 -26 -487 -123 -673 -282 -97 -82 -126 -133 -115
-203 8 -58 64 -119 118 -129 66 -13 100 1 190 78 109 93 190 140 302 176 224
72 500 63 875 -29 188 -46 298 -80 725 -220 759 -249 1038 -309 1380 -297 277
10 468 66 666 195 86 56 194 153 215 193 48 93 -21 214 -128 226 -54 6 -95
-12 -153 -67 -236 -225 -565 -283 -1050 -185 -215 43 -354 85 -1089 324 -353
115 -593 176 -811 206 -136 19 -341 26 -452 14z"/>
</g>
</svg>
